# xmcd
#
# Track frame offsets:
#	161
#	16349
#	31405
#	45196
#	60427
#	76162
#	92642
#	106955
#	122654
#	136377
#	148388
#	160880
#	175921
#	189907
#	202708
#
# Disc length: 2910 seconds
#
# Revision: 0
# Processed by: cddbd v1.5.2PL0 Copyright (c) Steve Scherf et al.
# Submitted via: EasyCDDAExtractor 16.0.6.1
#
DISCID=b80b5c0f
DTITLE=Συλλογικός δίσκος - Ένας φίλος απ' τα παλιά 1
DYEAR=2011
DGENRE=Ελαφρά
TTITLE0=Παναγόπουλος Σώτος - Ένας φίλος
TTITLE1=Μαρέλη Ελίζα - Ήρθες σαν την Άνοιξη
TTITLE2=Παγώνης Άλκης - Μαραμένα τα γιούλια και οι βιόλες
TTITLE3=Μαρούδας Τώνης - Μένω σε κάποια γειτονιά
TTITLE4=Μαρούδας Τώνης - Σού σφυρίζω
TTITLE5=Μελάγια Μάγια-Τρίο κιτάρα - Αυτό το μάμπο το βραζιλιέρο
TTITLE6=Παναγόπουλος Σώτος-Τρίο Κιτάρα - Μαρία Μπονίτα
TTITLE7=Μαρούδας Τώνης - Τσίκα τσίκα μπουμ
TTITLE8=Τρίο Κιτάρα - Μάμπο
TTITLE9=Πολυμέρης Φώτης - Νά 'χα τα νειάτα σου
TTITLE10=Πολυμέρης Φώτης - Ένα μπουκέτο μενεξέσες
TTITLE11=Ποζέλι Λουΐζα - Ακόμα ένα ποτηράκι
TTITLE12=Μπελίντα Καίτη - Χτύπα καρδιά μου
TTITLE13=Παναγόπουλος Σώτος - Μεγάλε μου έρωτα
TTITLE14=Μπελίντα Καίτη-Δήμας Φώτης - Η συνείδηση
EXTD=
EXTT0=
EXTT1=
EXTT2=
EXTT3=
EXTT4=
EXTT5=
EXTT6=
EXTT7=
EXTT8=
EXTT9=
EXTT10=
EXTT11=
EXTT12=
EXTT13=
EXTT14=
PLAYORDER=
